<svg xmlns="http://www.w3.org/2000/svg" width="12" height="12" viewBox="0 0 12 12">
  <path id="Path_3731" data-name="Path 3731" d="M0-12a5.915,5.915,0,0,0-3.02.8A5.9,5.9,0,0,0-5.2-9.02,5.915,5.915,0,0,0-6-6a5.915,5.915,0,0,0,.8,3.02A5.9,5.9,0,0,0-3.02-.8,5.915,5.915,0,0,0,0,0,5.915,5.915,0,0,0,3.02-.8,5.9,5.9,0,0,0,5.2-2.98,5.915,5.915,0,0,0,6-6a5.915,5.915,0,0,0-.8-3.02A5.9,5.9,0,0,0,3.02-11.2,5.915,5.915,0,0,0,0-12ZM2-4.72a.5.5,0,0,1,.16.36A.533.533,0,0,1,2.02-4a.436.436,0,0,1-.34.16.585.585,0,0,1-.36-.12L0-5.28-1.28-4a.432.432,0,0,1-.36.14A.632.632,0,0,1-2-4.02a.436.436,0,0,1-.16-.34A.5.5,0,0,1-2-4.72L-.72-6-2-7.28a.432.432,0,0,1-.14-.36A.632.632,0,0,1-1.98-8a.436.436,0,0,1,.34-.16A.5.5,0,0,1-1.28-8L0-6.72,1.28-8a.5.5,0,0,1,.36-.16A.533.533,0,0,1,2-8.02a.436.436,0,0,1,.16.34.585.585,0,0,1-.12.36L.72-6Z" transform="translate(6 12)" fill="rgba(60,60,67,0.6)"/>
</svg>
